<svg width="477" height="142" viewBox="0 0 477 142" fill="none" xmlns="http://www.w3.org/2000/svg">
<path d="M36.6912 116.527H27.949C25.1355 116.527 22.1209 116.05 18.9054 115.095C15.7402 114.141 12.7759 112.583 10.0126 110.423C7.24923 108.212 4.96321 105.373 3.15449 101.907C1.34577 98.3897 0.441406 94.094 0.441406 89.0196V0.618286H20.0359V89.0196C20.0359 91.4312 20.7895 93.3655 22.2968 94.8225C23.8041 96.2293 25.6881 96.9327 27.949 96.9327H36.6912V116.527Z" fill="#E27BE2"/>
<path d="M69.1728 18.3287H49.5783V0.618286H69.1728V18.3287ZM69.1728 116.527H49.5783V35.0594H69.1728V116.527Z" fill="#E27BE2"/>
<path d="M123.811 116.527H115.069C112.256 116.527 109.241 116.05 106.026 115.095C102.86 114.141 99.896 112.583 97.1327 110.423C94.3693 108.212 92.0833 105.373 90.2746 101.907C88.4659 98.3897 87.5615 94.094 87.5615 89.0196V0.618286H107.156V89.0196C107.156 91.4312 107.91 93.3655 109.417 94.8225C110.924 96.2293 112.808 96.9327 115.069 96.9327H123.811V116.527Z" fill="#E27BE2"/>
<path d="M156.293 18.3287H136.698V0.618286H156.293V18.3287ZM156.293 116.527H136.698V35.0594H156.293V116.527Z" fill="#E27BE2"/>
<path d="M264.967 89.0196C264.967 92.3858 264.54 95.4255 263.686 98.1385C262.832 100.801 261.701 103.163 260.294 105.223C258.888 107.232 257.255 108.966 255.396 110.423C253.537 111.83 251.577 112.985 249.517 113.889C247.508 114.794 245.473 115.472 243.413 115.924C241.353 116.326 239.394 116.527 237.535 116.527H202.189V96.9327H237.535C240.147 96.9327 242.107 96.2544 243.413 94.8979C244.719 93.5414 245.372 91.5819 245.372 89.0196V62.6424C245.372 59.9293 244.694 57.9196 243.338 56.6133C242.031 55.307 240.097 54.6538 237.535 54.6538H202.34C199.677 54.6538 197.667 55.3321 196.311 56.6887C194.954 57.995 194.276 59.9293 194.276 62.4916V142H174.682V62.4916C174.682 59.1254 175.109 56.1109 175.963 53.448C176.817 50.7852 177.947 48.4489 179.354 46.4392C180.811 44.3793 182.469 42.6459 184.328 41.2392C186.187 39.7821 188.121 38.6014 190.131 37.6971C192.191 36.7927 194.251 36.1396 196.311 35.7376C198.421 35.2855 200.381 35.0594 202.189 35.0594H237.535C240.901 35.0594 243.915 35.4864 246.578 36.3405C249.241 37.1947 251.577 38.3251 253.587 39.7319C255.647 41.1387 257.38 42.7715 258.787 44.6305C260.244 46.4895 261.425 48.4489 262.329 50.5089C263.234 52.5186 263.887 54.5534 264.289 56.6133C264.741 58.6732 264.967 60.6327 264.967 62.4916V89.0196Z" fill="black"/>
<path d="M476.437 89.0196C476.437 92.3858 476.01 95.4255 475.155 98.1385C474.301 100.801 473.171 103.163 471.764 105.223C470.357 107.232 468.724 108.966 466.866 110.423C465.007 111.83 463.047 112.985 460.987 113.889C458.977 114.794 456.918 115.472 454.807 115.924C452.747 116.326 450.788 116.527 448.929 116.527H413.584C410.217 116.527 407.203 116.1 404.54 115.246C401.877 114.392 399.516 113.261 397.456 111.855C395.446 110.398 393.713 108.74 392.256 106.881C390.849 105.022 389.693 103.087 388.789 101.078C387.885 99.0178 387.206 96.9578 386.754 94.8979C386.352 92.7877 386.151 90.8283 386.151 89.0196V62.4916C386.151 57.4674 387.056 53.2219 388.864 49.7552C390.723 46.2383 393.009 43.3996 395.722 41.2392C398.486 39.0285 401.475 37.4459 404.691 36.4913C407.906 35.5367 410.871 35.0594 413.584 35.0594H448.929V54.6538H413.734C411.122 54.6538 409.137 55.3321 407.781 56.6887C406.424 57.995 405.746 59.9293 405.746 62.4916V88.8688C405.746 91.5317 406.399 93.5414 407.705 94.8979C409.062 96.2544 411.021 96.9327 413.584 96.9327H448.929C451.592 96.9327 453.576 96.2544 454.883 94.8979C456.189 93.5414 456.842 91.5819 456.842 89.0196V0.618286H476.437V89.0196Z" fill="black"/>
<path d="M327.118 73.8735L345.745 97.9842C351.306 105.182 347.748 115.722 338.962 118.076C330.176 120.43 321.824 113.082 323.041 104.068L327.118 73.8735Z" fill="black"/>
<path d="M327.851 75.1615L318.279 104.087C315.421 112.722 304.694 115.666 297.829 109.698C290.964 103.731 292.386 92.6982 300.54 88.6664L327.851 75.1615Z" fill="black"/>
<path d="M328.797 75.9005L299.612 84.6502C290.899 87.2624 282.335 80.1635 283.286 71.1171C284.236 62.0707 294.089 56.9076 302.069 61.2742L328.797 75.9005Z" fill="black"/>
<path d="M326.089 76.4546L355.082 67.1808C363.763 64.4041 372.471 71.3635 371.677 80.443C370.882 89.5225 361.098 94.864 353.031 90.622L326.089 76.4546Z" fill="black"/>
<path d="M326.22 78.2655L333.235 48.616C335.329 39.7641 345.759 35.8968 353.118 41.2434C360.477 46.5901 360.022 57.7045 352.25 62.4317L326.22 78.2655Z" fill="black"/>
<path d="M328.01 77.4113L305.125 57.2979C298.292 51.293 299.774 40.2684 307.95 36.2808C316.125 32.2933 325.725 37.913 326.251 46.9941L328.01 77.4113Z" fill="black"/>
</svg>
